<?xml version="1.0" standalone="no"?>
<!DOCTYPE svg PUBLIC "-//W3C//DTD SVG 20010904//EN"
 "http://www.w3.org/TR/2001/REC-SVG-20010904/DTD/svg10.dtd">
<svg version="1.0" xmlns="http://www.w3.org/2000/svg"
 width="225.000000pt" height="225.000000pt" viewBox="0 0 225.000000 225.000000"
 preserveAspectRatio="xMidYMid meet">
<metadata>
Created by potrace 1.16, written by Peter Selinger 2001-2019
</metadata>
<g transform="translate(0.000000,225.000000) scale(0.100000,-0.100000)"
fill="#000000" stroke="none">
<path d="M1176 2134 c-5 -13 -4 -14 7 -6 20 17 25 6 17 -37 -7 -39 -7 -39 29
-44 43 -5 149 -49 133 -55 -6 -2 -21 2 -33 8 -17 10 -23 9 -30 -1 -8 -13 -13
-5 -10 15 1 5 -5 4 -13 -3 -9 -8 -28 -10 -48 -7 l-33 6 30 -12 c40 -15 48 -29
23 -46 -13 -10 -37 -13 -74 -10 -59 5 -63 0 -12 -13 l33 -9 -35 4 c-53 5 -62
-2 -37 -27 12 -12 26 -22 32 -23 5 0 21 -2 35 -3 25 -2 25 -2 -5 -15 l-30 -13
54 -13 54 -13 -27 -14 c-16 -8 -37 -12 -49 -9 -11 3 -29 0 -41 -6 -20 -11 -20
-11 -2 17 16 24 16 27 2 22 -10 -4 -16 -1 -16 8 0 9 -17 19 -45 26 -25 6 -45
15 -45 19 0 5 15 4 32 -1 43 -12 48 -12 48 5 0 8 -14 18 -31 21 -23 5 -28 9
-18 16 11 7 11 9 1 9 -7 0 -11 4 -8 9 6 8 -23 22 -54 25 -8 0 -14 7 -12 15 1
7 -3 19 -9 27 -13 16 -13 16 16 33 18 11 18 11 -5 4 -14 -4 -47 -8 -73 -8 -38
0 -51 -4 -59 -20 -9 -16 -8 -18 2 -8 10 9 16 8 27 -3 8 -8 18 -12 23 -9 10 6
70 -64 70 -81 0 -7 -12 -35 -26 -63 -23 -43 -25 -53 -13 -68 12 -17 12 -17 -6
-1 -17 16 -18 23 -9 58 8 29 8 46 0 62 -10 19 -9 25 3 35 13 9 14 16 5 30 -12
19 -27 21 -58 8 -12 -5 -21 -3 -27 6 -6 10 -9 5 -9 -16 0 -23 -16 -47 -70
-105 -38 -41 -69 -82 -69 -90 0 -10 2 -11 6 -2 2 6 9 10 14 7 5 -4 6 1 3 10
-5 11 -2 14 12 8 13 -5 16 -3 11 10 -7 17 15 41 28 29 5 -4 5 -2 1 5 -3 6 -2
14 4 18 5 3 10 1 10 -5 0 -6 10 -4 24 5 16 11 26 13 31 6 3 -6 -1 -11 -9 -11
-9 0 -16 -4 -16 -8 0 -4 9 -8 19 -8 11 0 18 3 15 7 -2 4 3 9 10 12 21 8 25
-14 9 -47 -11 -20 -12 -31 -4 -39 8 -8 11 -8 11 0 0 6 8 9 18 7 14 -4 16 -14
14 -55 -3 -40 -1 -49 12 -49 9 0 16 5 16 10 0 6 7 10 15 10 8 0 15 7 15 16 0
9 -5 13 -12 9 -7 -4 -4 1 6 9 11 9 24 16 29 16 4 0 5 5 1 11 -4 8 -9 7 -15 -2
-5 -8 -9 -9 -9 -3 0 24 64 51 76 33 3 -5 -7 -9 -22 -9 -15 0 -24 -3 -20 -7 4
-4 31 -6 61 -5 51 1 69 -8 44 -23 -7 -5 -3 -14 10 -27 12 -10 19 -23 16 -28
-3 -4 1 -11 7 -13 7 -3 4 -6 -7 -6 -19 -1 -19 -1 0 -15 28 -18 86 -18 107 1
10 9 18 12 19 7 0 -5 4 1 9 14 5 12 17 22 27 21 16 0 16 -1 -2 -8 -16 -6 -14
-9 15 -15 26 -5 38 -2 46 8 15 21 73 16 80 -6 3 -10 12 -18 21 -18 23 0 10
-24 -18 -31 -22 -7 -22 -7 6 -8 17 -1 41 6 54 15 21 15 24 15 42 -5 20 -21 20
-21 -6 -47 -25 -25 -25 -25 -3 -18 20 6 21 5 10 -9 -10 -12 -10 -16 0 -19 10
-4 8 -14 -7 -44 -11 -21 -21 -42 -23 -47 -2 -4 3 -5 10 -2 10 4 21 -8 33 -34
11 -25 26 -42 39 -44 17 -4 16 -5 -5 -6 -15 0 -29 -8 -32 -16 -7 -17 8 -29 26
-20 6 4 3 -1 -7 -9 -11 -9 -25 -16 -30 -15 -6 0 -5 3 2 6 16 6 6 23 -14 23 -8
0 -12 -4 -9 -10 4 -6 -13 -10 -44 -10 -52 0 -68 13 -31 25 11 3 20 11 20 17 0
10 -26 9 -140 -7 -29 -4 -31 -4 -12 5 41 17 23 23 -55 16 l-76 -6 23 20 c22
19 42 24 85 22 11 0 14 2 8 4 -23 10 -14 24 15 25 15 0 22 3 15 5 -6 3 -41 1
-77 -4 -47 -6 -66 -5 -63 2 2 6 13 12 25 14 29 4 28 23 -3 56 -27 30 -47 33
-69 11 -16 -17 -66 -21 -66 -5 0 14 -34 12 -49 -2 -10 -11 -11 -10 -6 4 5 13
2 15 -16 11 -15 -4 -20 -3 -15 5 9 15 5 15 -28 2 -21 -8 -26 -7 -26 6 0 9 10
24 22 33 15 13 18 20 9 25 -6 4 -11 4 -10 -1 3 -20 -2 -27 -11 -13 -6 10 -10
11 -10 3 0 -7 -5 -13 -11 -13 -6 0 -8 7 -5 15 3 8 9 22 12 30 4 10 0 15 -10
15 -9 0 -20 -8 -23 -17 -4 -10 -17 -32 -30 -49 -31 -41 -30 -57 1 -19 34 43
43 25 11 -24 -15 -22 -24 -45 -20 -50 3 -6 2 -11 -3 -11 -6 0 -5 -10 1 -24 7
-13 15 -22 18 -20 4 2 10 -29 14 -69 3 -39 8 -79 11 -88 3 -9 -2 -16 -11 -16
-9 0 -14 6 -11 14 3 7 -3 22 -14 33 -18 18 -20 18 -20 3 0 -12 -3 -14 -8 -6
-11 17 -36 -1 -29 -22 4 -10 3 -14 -4 -9 -6 3 -9 15 -6 25 3 12 0 19 -9 19 -8
0 -14 10 -14 23 0 12 -5 29 -11 37 -8 12 -9 9 -4 -10 6 -24 5 -24 -9 -6 -15
19 -16 19 -16 -10 l-1 -29 -14 25 c-9 16 -14 19 -15 9 0 -14 79 -94 186 -188
55 -48 167 -122 259 -171 71 -38 249 -120 260 -120 15 0 89 140 112 213 25 79
30 87 51 84 12 -2 22 0 22 5 0 5 4 7 9 4 15 -10 141 11 158 26 9 7 30 17 47
23 16 5 38 24 47 40 23 40 49 171 52 258 l2 69 -81 77 c-116 110 -241 221
-304 271 -59 46 -194 116 -244 126 -25 5 -36 16 -54 55 -24 51 -54 65 -66 33z"/>
<path d="M510 1409 c0 -8 -16 -31 -36 -50 -50 -47 -156 -191 -147 -198 5 -3 9
-40 9 -82 2 -86 21 -189 35 -189 5 0 9 6 9 13 1 6 7 -3 15 -21 12 -27 19 -32
35 -27 12 4 20 2 20 -5 0 -15 26 -41 34 -33 3 4 6 -4 6 -16 0 -14 -4 -20 -11
-15 -7 4 -9 0 -5 -13 4 -12 -1 -28 -13 -42 -11 -13 -23 -36 -26 -52 -4 -16
-13 -29 -20 -29 -7 0 -16 -6 -19 -12 -3 -7 -3 -2 0 12 l5 25 -21 -28 c-12 -15
-26 -25 -31 -21 -5 3 -9 1 -9 -3 0 -14 65 -74 73 -68 4 3 5 2 2 -2 -3 -3 0
-12 7 -20 9 -11 15 -10 37 9 14 13 20 16 13 7 -6 -9 -8 -20 -4 -24 4 -5 1 -5
-5 -1 -7 4 -13 3 -13 -3 0 -16 89 -73 103 -65 6 4 9 4 5 -1 -9 -10 4 -19 97
-70 62 -35 73 -33 35 5 -7 7 -55 81 -68 107 -9 17 -9 22 4 27 9 3 12 2 9 -4
-4 -6 5 -24 19 -40 13 -17 27 -39 31 -49 3 -11 19 -25 35 -32 16 -8 26 -17 24
-21 -3 -4 0 -16 5 -27 9 -16 63 -41 181 -81 35 -12 231 -60 244 -60 20 0 -18
20 -39 20 -40 0 -95 21 -95 35 0 8 -5 15 -11 15 -5 0 -7 -5 -3 -12 5 -8 0 -9
-17 -4 -13 5 -31 8 -40 9 -9 1 -16 7 -16 13 0 7 7 10 16 7 10 -4 8 2 -7 16
-12 12 -27 19 -32 16 -6 -4 -9 -3 -8 2 2 4 -5 19 -15 33 -15 21 -19 22 -27 10
-5 -8 -12 -11 -16 -7 -4 4 -2 13 4 19 16 16 15 28 -2 28 -8 0 -31 16 -50 35
-20 19 -40 35 -44 35 -4 0 -18 17 -32 38 -14 20 -27 39 -31 42 -3 3 -9 13 -12
24 -5 13 -14 17 -30 12 -25 -6 -56 9 -44 21 5 4 12 1 17 -7 8 -12 10 -12 10
-2 0 8 -9 16 -20 19 -18 5 -25 15 -21 36 1 5 -8 5 -20 2 -18 -6 -20 -4 -15 13
4 11 2 23 -4 27 -14 9 -13 -38 2 -53 17 -17 18 -40 2 -46 -9 -4 -18 3 -23 17
-13 34 -48 203 -56 267 -4 30 -10 75 -15 100 -5 25 -11 92 -14 150 l-5 105 19
-135 c35 -235 42 -270 51 -270 5 0 6 12 3 28 -6 25 -4 24 33 -15 45 -48 75
-57 65 -20 -5 20 -4 21 11 8 26 -21 21 -41 -10 -42 -16 0 -21 -3 -13 -6 8 -3
21 -12 28 -21 10 -14 12 -13 12 6 0 12 6 22 14 22 25 0 30 83 8 132 -19 44
-35 87 -46 123 -5 18 -5 18 6 3 7 -9 19 -25 26 -35 7 -10 3 1 -8 24 -14 29
-25 41 -35 37 -8 -4 -15 -1 -15 6 0 6 5 8 10 5 6 -3 10 1 10 9 0 9 -5 16 -12
16 -6 0 -9 3 -5 6 3 4 -1 23 -10 43 -8 20 -33 86 -54 146 -21 61 -39 103 -39
94z"/>
<path d="M1652 1024 c81 -108 134 -202 129 -231 -1 -7 5 -13 14 -13 8 0 15 -5
15 -12 0 -6 -3 -8 -7 -5 -3 4 -13 1 -21 -6 -13 -10 -15 -9 -9 6 6 15 -3 22
-25 18 -5 0 -8 6 -8 15 0 11 5 14 18 9 13 -5 14 -4 5 6 -19 19 -43 -7 -45 -50
l-1 -36 -4 34 c-3 19 -11 44 -19 55 -8 11 -14 26 -14 34 0 7 -9 33 -20 58 -12
24 -19 48 -16 53 3 4 -2 8 -10 8 -9 0 -13 -6 -9 -16 4 -9 12 -38 20 -66 7 -27
18 -63 25 -80 18 -45 60 -298 63 -377 1 -37 3 -68 4 -68 1 0 18 24 37 53 84
128 152 307 116 307 -5 0 -6 8 -3 18 7 16 6 16 -11 0 -19 -19 -31 -24 -21 -9
3 5 1 12 -5 16 -6 4 -8 11 -4 16 3 5 -13 37 -35 70 -23 34 -38 66 -34 73 3 6
3 8 -2 4 -4 -4 -19 10 -32 30 -42 62 -93 121 -115 133 -14 8 -7 -8 24 -47z"/>
<path d="M1404 822 c-10 -9 -30 -37 -45 -61 l-28 -44 21 -31 c12 -17 37 -48
55 -69 32 -36 33 -40 33 -122 0 -83 18 -286 26 -294 7 -8 96 18 139 40 71 37
87 58 79 104 -8 48 -47 121 -63 117 -7 -1 -11 5 -9 14 2 9 -2 19 -8 21 -6 2
-11 -8 -12 -24 -1 -64 -22 -162 -22 -105 0 13 -6 22 -14 22 -8 0 -21 8 -28 18
-7 10 -28 24 -45 31 -32 13 -33 16 -33 70 l0 56 53 15 c58 17 57 15 44 118
l-6 52 52 -39 c28 -22 54 -38 58 -35 12 7 18 64 9 86 -7 19 -9 14 -9 -24 -1
-27 -4 -48 -9 -48 -4 0 -20 11 -35 25 -15 14 -27 23 -27 20 0 -4 -7 1 -16 9
-8 9 -20 14 -25 11 -5 -4 -9 2 -9 11 0 10 -3 15 -6 11 -3 -3 -16 3 -28 14 -11
12 -33 27 -48 35 -24 12 -29 12 -44 -4z"/>
<path d="M1076 450 c27 -30 61 -70 76 -87 15 -18 30 -33 35 -34 12 -1 66 -69
55 -69 -6 0 -14 5 -17 10 -4 6 -12 7 -18 4 -7 -4 -9 -4 -5 0 4 4 -17 32 -46
62 -29 29 -59 61 -67 71 -8 10 -13 16 -12 14 2 -2 -2 -10 -8 -17 -16 -20 -1
-56 21 -49 10 3 25 -1 34 -10 18 -18 21 -35 6 -35 -5 0 -7 -8 -3 -17 10 -28
35 -53 53 -53 9 0 25 -7 36 -15 14 -11 15 -14 3 -9 -10 3 -20 1 -23 -4 -3 -5
22 -12 56 -16 107 -11 107 -11 68 29 -18 19 -37 32 -43 28 -5 -3 -4 -9 3 -13
6 -4 12 -11 12 -16 0 -5 4 -8 10 -6 5 1 7 -2 3 -8 -4 -6 -15 -4 -31 6 -25 17
-32 40 -14 46 6 2 -45 57 -112 123 -67 66 -100 95 -72 65z"/>
</g>
</svg>
